<mxfile host="Electron" agent="Mozilla/5.0 (Windows NT 10.0; Win64; x64) AppleWebKit/537.36 (KHTML, like Gecko) draw.io/26.1.1 Chrome/132.0.6834.210 Electron/34.3.3 Safari/537.36" version="26.1.1">
  <diagram id="_BiIyWnJFL280cAnwLu8" name="Page-1">
    <mxGraphModel dx="989" dy="582" grid="1" gridSize="10" guides="1" tooltips="1" connect="1" arrows="1" fold="1" page="1" pageScale="1" pageWidth="850" pageHeight="1100" math="0" shadow="0">
      <root>
        <mxCell id="0" />
        <mxCell id="1" parent="0" />
        <mxCell id="mFtFQo7KXTv8nuhkbcJS-4" value="gateway + auth service&lt;div&gt;&lt;font style=&quot;font-size: 8px;&quot;&gt;Java Spring&lt;/font&gt;&lt;/div&gt;" style="ellipse;whiteSpace=wrap;html=1;" vertex="1" parent="1">
          <mxGeometry x="340" y="180" width="120" height="80" as="geometry" />
        </mxCell>
        <mxCell id="mFtFQo7KXTv8nuhkbcJS-27" value="" style="edgeStyle=orthogonalEdgeStyle;rounded=0;orthogonalLoop=1;jettySize=auto;html=1;" edge="1" parent="1" source="mFtFQo7KXTv8nuhkbcJS-5" target="mFtFQo7KXTv8nuhkbcJS-6">
          <mxGeometry relative="1" as="geometry" />
        </mxCell>
        <mxCell id="mFtFQo7KXTv8nuhkbcJS-5" value="model service&lt;div&gt;&lt;font style=&quot;font-size: 8px;&quot;&gt;python&lt;/font&gt;&lt;/div&gt;" style="ellipse;whiteSpace=wrap;html=1;" vertex="1" parent="1">
          <mxGeometry x="340" y="510" width="120" height="80" as="geometry" />
        </mxCell>
        <mxCell id="mFtFQo7KXTv8nuhkbcJS-28" style="edgeStyle=orthogonalEdgeStyle;rounded=0;orthogonalLoop=1;jettySize=auto;html=1;" edge="1" parent="1" source="mFtFQo7KXTv8nuhkbcJS-6" target="mFtFQo7KXTv8nuhkbcJS-5">
          <mxGeometry relative="1" as="geometry" />
        </mxCell>
        <mxCell id="mFtFQo7KXTv8nuhkbcJS-39" value="RabbitMQ" style="edgeLabel;html=1;align=center;verticalAlign=middle;resizable=0;points=[];" vertex="1" connectable="0" parent="mFtFQo7KXTv8nuhkbcJS-28">
          <mxGeometry x="0.042" relative="1" as="geometry">
            <mxPoint as="offset" />
          </mxGeometry>
        </mxCell>
        <mxCell id="mFtFQo7KXTv8nuhkbcJS-6" value="real-&lt;span style=&quot;background-color: transparent; color: light-dark(rgb(0, 0, 0), rgb(255, 255, 255));&quot;&gt;estate service&lt;/span&gt;&lt;div&gt;&lt;span style=&quot;background-color: transparent; color: light-dark(rgb(0, 0, 0), rgb(255, 255, 255));&quot;&gt;&lt;font style=&quot;font-size: 8px;&quot;&gt;Java Spring&lt;/font&gt;&lt;/span&gt;&lt;/div&gt;" style="ellipse;whiteSpace=wrap;html=1;" vertex="1" parent="1">
          <mxGeometry x="340" y="320" width="120" height="80" as="geometry" />
        </mxCell>
        <mxCell id="mFtFQo7KXTv8nuhkbcJS-7" value="spraping service&lt;div&gt;&lt;font style=&quot;font-size: 8px;&quot;&gt;Node.js&lt;/font&gt;&lt;/div&gt;" style="ellipse;whiteSpace=wrap;html=1;" vertex="1" parent="1">
          <mxGeometry x="60" y="320" width="120" height="80" as="geometry" />
        </mxCell>
        <mxCell id="mFtFQo7KXTv8nuhkbcJS-25" style="edgeStyle=orthogonalEdgeStyle;rounded=0;orthogonalLoop=1;jettySize=auto;html=1;exitX=0;exitY=0.5;exitDx=0;exitDy=0;exitPerimeter=0;entryX=1;entryY=0.5;entryDx=0;entryDy=0;" edge="1" parent="1" source="mFtFQo7KXTv8nuhkbcJS-8" target="mFtFQo7KXTv8nuhkbcJS-4">
          <mxGeometry relative="1" as="geometry" />
        </mxCell>
        <mxCell id="mFtFQo7KXTv8nuhkbcJS-8" value="auth DB" style="strokeWidth=2;html=1;shape=mxgraph.flowchart.database;whiteSpace=wrap;" vertex="1" parent="1">
          <mxGeometry x="570" y="190" width="60" height="60" as="geometry" />
        </mxCell>
        <mxCell id="mFtFQo7KXTv8nuhkbcJS-11" value="" style="endArrow=classic;startArrow=classic;html=1;rounded=0;entryX=0.5;entryY=1;entryDx=0;entryDy=0;exitX=0.5;exitY=0;exitDx=0;exitDy=0;" edge="1" parent="1" source="mFtFQo7KXTv8nuhkbcJS-6" target="mFtFQo7KXTv8nuhkbcJS-4">
          <mxGeometry width="50" height="50" relative="1" as="geometry">
            <mxPoint x="360" y="260" as="sourcePoint" />
            <mxPoint x="410" y="210" as="targetPoint" />
          </mxGeometry>
        </mxCell>
        <mxCell id="mFtFQo7KXTv8nuhkbcJS-45" value="RabbitMQ" style="edgeLabel;html=1;align=center;verticalAlign=middle;resizable=0;points=[];" vertex="1" connectable="0" parent="mFtFQo7KXTv8nuhkbcJS-11">
          <mxGeometry x="0.0322" relative="1" as="geometry">
            <mxPoint as="offset" />
          </mxGeometry>
        </mxCell>
        <mxCell id="mFtFQo7KXTv8nuhkbcJS-13" value="f&lt;span style=&quot;background-color: transparent; color: light-dark(rgb(0, 0, 0), rgb(255, 255, 255));&quot;&gt;rontend&lt;/span&gt;&lt;div&gt;&lt;div&gt;&lt;span style=&quot;background-color: transparent; color: light-dark(rgb(0, 0, 0), rgb(255, 255, 255));&quot;&gt;&lt;font style=&quot;font-size: 8px;&quot;&gt;React.js&amp;nbsp;&lt;/font&gt;&lt;/span&gt;&lt;/div&gt;&lt;/div&gt;" style="ellipse;whiteSpace=wrap;html=1;" vertex="1" parent="1">
          <mxGeometry x="340" y="30" width="120" height="80" as="geometry" />
        </mxCell>
        <mxCell id="mFtFQo7KXTv8nuhkbcJS-14" value="" style="endArrow=classic;startArrow=classic;html=1;rounded=0;entryX=0.5;entryY=1;entryDx=0;entryDy=0;exitX=0.5;exitY=0;exitDx=0;exitDy=0;" edge="1" parent="1" source="mFtFQo7KXTv8nuhkbcJS-4" target="mFtFQo7KXTv8nuhkbcJS-13">
          <mxGeometry width="50" height="50" relative="1" as="geometry">
            <mxPoint x="360" y="260" as="sourcePoint" />
            <mxPoint x="410" y="210" as="targetPoint" />
          </mxGeometry>
        </mxCell>
        <mxCell id="mFtFQo7KXTv8nuhkbcJS-40" value="Rest API + WebSocket" style="edgeLabel;html=1;align=center;verticalAlign=middle;resizable=0;points=[];" vertex="1" connectable="0" parent="mFtFQo7KXTv8nuhkbcJS-14">
          <mxGeometry x="0.1803" y="1" relative="1" as="geometry">
            <mxPoint x="1" as="offset" />
          </mxGeometry>
        </mxCell>
        <mxCell id="mFtFQo7KXTv8nuhkbcJS-15" value="u&lt;span style=&quot;background-color: transparent; color: light-dark(rgb(0, 0, 0), rgb(255, 255, 255));&quot;&gt;ser&lt;/span&gt;" style="rhombus;whiteSpace=wrap;html=1;" vertex="1" parent="1">
          <mxGeometry x="110" y="30" width="80" height="70" as="geometry" />
        </mxCell>
        <mxCell id="mFtFQo7KXTv8nuhkbcJS-17" value="" style="endArrow=classic;startArrow=classic;html=1;rounded=0;entryX=0.011;entryY=0.445;entryDx=0;entryDy=0;entryPerimeter=0;exitX=1;exitY=0.5;exitDx=0;exitDy=0;" edge="1" parent="1" source="mFtFQo7KXTv8nuhkbcJS-15" target="mFtFQo7KXTv8nuhkbcJS-13">
          <mxGeometry width="50" height="50" relative="1" as="geometry">
            <mxPoint x="360" y="260" as="sourcePoint" />
            <mxPoint x="410" y="210" as="targetPoint" />
          </mxGeometry>
        </mxCell>
        <mxCell id="mFtFQo7KXTv8nuhkbcJS-21" style="edgeStyle=orthogonalEdgeStyle;rounded=0;orthogonalLoop=1;jettySize=auto;html=1;entryX=1;entryY=0.5;entryDx=0;entryDy=0;" edge="1" parent="1" source="mFtFQo7KXTv8nuhkbcJS-18" target="mFtFQo7KXTv8nuhkbcJS-6">
          <mxGeometry relative="1" as="geometry" />
        </mxCell>
        <mxCell id="mFtFQo7KXTv8nuhkbcJS-18" value="RE&amp;nbsp;&lt;span style=&quot;color: light-dark(rgb(0, 0, 0), rgb(255, 255, 255)); background-color: transparent;&quot;&gt;DB&lt;/span&gt;" style="strokeWidth=2;html=1;shape=mxgraph.flowchart.database;whiteSpace=wrap;" vertex="1" parent="1">
          <mxGeometry x="570" y="330" width="60" height="60" as="geometry" />
        </mxCell>
        <mxCell id="mFtFQo7KXTv8nuhkbcJS-20" style="edgeStyle=orthogonalEdgeStyle;rounded=0;orthogonalLoop=1;jettySize=auto;html=1;entryX=0;entryY=0.5;entryDx=0;entryDy=0;entryPerimeter=0;" edge="1" parent="1" source="mFtFQo7KXTv8nuhkbcJS-6" target="mFtFQo7KXTv8nuhkbcJS-18">
          <mxGeometry relative="1" as="geometry">
            <mxPoint x="570" y="370" as="targetPoint" />
          </mxGeometry>
        </mxCell>
        <mxCell id="mFtFQo7KXTv8nuhkbcJS-24" style="edgeStyle=orthogonalEdgeStyle;rounded=0;orthogonalLoop=1;jettySize=auto;html=1;entryX=0;entryY=0.5;entryDx=0;entryDy=0;entryPerimeter=0;" edge="1" parent="1" source="mFtFQo7KXTv8nuhkbcJS-4" target="mFtFQo7KXTv8nuhkbcJS-8">
          <mxGeometry relative="1" as="geometry" />
        </mxCell>
        <mxCell id="mFtFQo7KXTv8nuhkbcJS-26" value="" style="endArrow=classic;html=1;rounded=0;exitX=1;exitY=0.5;exitDx=0;exitDy=0;entryX=0;entryY=0.5;entryDx=0;entryDy=0;" edge="1" parent="1" source="mFtFQo7KXTv8nuhkbcJS-7" target="mFtFQo7KXTv8nuhkbcJS-6">
          <mxGeometry width="50" height="50" relative="1" as="geometry">
            <mxPoint x="360" y="260" as="sourcePoint" />
            <mxPoint x="330" y="370" as="targetPoint" />
          </mxGeometry>
        </mxCell>
        <mxCell id="mFtFQo7KXTv8nuhkbcJS-41" value="Rest API" style="edgeLabel;html=1;align=center;verticalAlign=middle;resizable=0;points=[];" vertex="1" connectable="0" parent="mFtFQo7KXTv8nuhkbcJS-26">
          <mxGeometry x="-0.2935" y="2" relative="1" as="geometry">
            <mxPoint as="offset" />
          </mxGeometry>
        </mxCell>
        <mxCell id="mFtFQo7KXTv8nuhkbcJS-47" value="www" style="ellipse;shape=cloud;whiteSpace=wrap;html=1;" vertex="1" parent="1">
          <mxGeometry x="20" y="180" width="80" height="60" as="geometry" />
        </mxCell>
        <mxCell id="mFtFQo7KXTv8nuhkbcJS-48" value="" style="endArrow=classic;startArrow=classic;html=1;rounded=0;exitX=0.304;exitY=0.009;exitDx=0;exitDy=0;exitPerimeter=0;" edge="1" parent="1" source="mFtFQo7KXTv8nuhkbcJS-7">
          <mxGeometry width="50" height="50" relative="1" as="geometry">
            <mxPoint x="10" y="290" as="sourcePoint" />
            <mxPoint x="60" y="240" as="targetPoint" />
          </mxGeometry>
        </mxCell>
        <mxCell id="mFtFQo7KXTv8nuhkbcJS-54" value="" style="edgeStyle=orthogonalEdgeStyle;rounded=0;orthogonalLoop=1;jettySize=auto;html=1;" edge="1" parent="1" source="mFtFQo7KXTv8nuhkbcJS-53" target="mFtFQo7KXTv8nuhkbcJS-5">
          <mxGeometry relative="1" as="geometry" />
        </mxCell>
        <mxCell id="mFtFQo7KXTv8nuhkbcJS-53" value="model&amp;nbsp;&lt;span style=&quot;color: light-dark(rgb(0, 0, 0), rgb(255, 255, 255)); background-color: transparent;&quot;&gt;DB&lt;/span&gt;" style="strokeWidth=2;html=1;shape=mxgraph.flowchart.database;whiteSpace=wrap;" vertex="1" parent="1">
          <mxGeometry x="570" y="520" width="60" height="60" as="geometry" />
        </mxCell>
        <mxCell id="mFtFQo7KXTv8nuhkbcJS-55" style="edgeStyle=orthogonalEdgeStyle;rounded=0;orthogonalLoop=1;jettySize=auto;html=1;entryX=0;entryY=0.5;entryDx=0;entryDy=0;entryPerimeter=0;" edge="1" parent="1" source="mFtFQo7KXTv8nuhkbcJS-5" target="mFtFQo7KXTv8nuhkbcJS-53">
          <mxGeometry relative="1" as="geometry" />
        </mxCell>
      </root>
    </mxGraphModel>
  </diagram>
</mxfile>
